<?xml version="1.0" standalone="no"?>
<!DOCTYPE svg PUBLIC "-//W3C//DTD SVG 20010904//EN"
 "http://www.w3.org/TR/2001/REC-SVG-20010904/DTD/svg10.dtd">
<svg version="1.0" xmlns="http://www.w3.org/2000/svg"
 width="300.000000pt" height="301.000000pt" viewBox="0 0 300.000000 301.000000"
 preserveAspectRatio="xMidYMid meet">
<metadata>
Created by potrace 1.10, written by Peter Selinger 2001-2011
</metadata>
<g transform="translate(0.000000,301.000000) scale(0.050000,-0.050000)"
fill="#000000" stroke="none">
<path d="M2943 5686 c-35 -135 -104 -215 -165 -194 -27 9 -52 17 -58 19 -14 4
-81 29 -137 51 -79 32 -276 46 -291 21 -17 -27 44 -55 155 -73 97 -16 226
-128 206 -179 -10 -27 -27 -33 -68 -23 -121 27 -632 56 -740 41 -63 -9 -97
-19 -75 -23 420 -78 499 -154 179 -171 -244 -12 -312 -68 -89 -72 71 -1 220
-45 220 -65 0 -9 -28 -6 -61 5 -88 31 -233 12 -349 -46 -105 -52 -158 -138
-67 -107 100 34 227 23 227 -19 0 -59 -95 -74 -300 -49 -433 53 -534 43 -589
-61 -52 -97 -13 -127 79 -61 129 92 282 77 177 -17 -61 -55 -64 -63 -46 -136
18 -72 15 -81 -41 -130 -99 -88 -237 -386 -258 -558 -16 -129 8 -210 68 -229
33 -11 41 -27 36 -77 -5 -52 2 -64 38 -69 47 -7 49 -50 16 -256 -11 -66 20
-556 42 -663 11 -57 8 -65 -28 -65 -100 0 -150 -141 -82 -228 89 -114 313 -27
407 158 l31 60 0 -121 c0 -126 -33 -153 -119 -100 -18 12 -22 10 -13 -5 8 -13
4 -41 -7 -62 -19 -35 -14 -40 42 -46 l63 -6 -102 -66 c-247 -159 -260 -329
-31 -400 89 -27 112 -15 51 28 -72 50 -110 139 -79 188 49 79 155 72 155 -10
0 -55 48 -78 103 -49 51 28 40 87 -18 95 -57 8 -59 65 -5 114 38 34 96 -40 80
-102 -2 -8 6 -20 18 -27 27 -16 36 -222 15 -326 -19 -97 14 -99 70 -5 51 87
57 87 142 -8 142 -156 191 -267 209 -467 24 -256 103 -162 103 121 0 118 9
238 20 267 42 110 187 174 243 107 67 -81 211 33 159 126 -63 113 -258 63
-446 -114 l-106 -101 -41 55 c-22 30 -65 109 -94 175 -30 65 -67 146 -83 179
-67 142 -131 358 -143 479 l-12 131 70 0 c116 0 175 99 99 167 -38 34 -143 46
-143 15 0 -9 -25 -28 -56 -40 -31 -13 -72 -51 -92 -84 -20 -34 -41 -56 -47
-50 -6 6 -2 23 9 37 11 14 26 48 33 77 34 144 169 210 302 147 95 -45 133 -16
78 58 -44 61 -162 113 -254 113 -80 0 -313 -76 -313 -103 0 -11 -9 -14 -21 -7
-50 31 8 544 84 740 32 83 184 221 311 283 125 61 140 78 90 105 -48 26 -302
15 -359 -15 -39 -21 -45 -19 -57 27 -13 51 -86 86 -127 61 -26 -17 -27 -1 -1
44 11 19 28 58 38 87 27 75 265 278 327 278 108 0 111 86 5 111 -62 15 -130
63 -130 91 0 9 34 4 75 -10 270 -95 545 -11 545 168 l0 56 79 -38 c196 -94
420 74 319 240 -21 35 -38 67 -38 72 0 33 353 -45 410 -90 11 -9 53 -29 92
-46 l73 -30 -3 137 c-1 86 7 146 23 162 47 47 73 -14 71 -163 -1 -77 1 -140 5
-140 4 0 36 17 73 39 78 45 335 136 400 142 93 7 97 2 54 -74 -99 -176 133
-351 327 -247 l75 40 0 -67 c0 -70 41 -131 111 -169 66 -34 387 -20 467 21 38
19 70 35 73 35 34 0 -119 -119 -166 -129 -111 -24 -92 -111 24 -111 61 0 287
-215 331 -315 l38 -85 -46 0 c-47 0 -112 -55 -112 -96 0 -15 -23 -12 -71 8
-144 60 -374 28 -331 -47 12 -19 21 -28 21 -20 1 24 195 -103 279 -182 84 -79
120 -166 169 -404 37 -181 49 -490 18 -475 -298 151 -477 153 -585 6 -46 -63
-44 -96 6 -80 225 70 279 56 354 -89 54 -106 50 -118 -15 -57 -139 130 -287
137 -301 14 -7 -64 26 -93 116 -101 130 -13 80 -301 -129 -747 -137 -290 -134
-289 -258 -178 -232 209 -453 249 -453 81 0 -105 117 -159 180 -83 38 45 73
37 155 -38 l75 -69 10 -250 c10 -259 17 -286 69 -266 22 8 31 40 31 107 1 161
88 355 226 501 77 81 79 81 125 -5 52 -96 93 -93 75 5 -19 106 -14 258 12 321
11 30 30 79 41 110 20 55 21 55 61 18 57 -53 29 -118 -45 -106 -27 4 -16 -72
14 -97 41 -34 107 -8 115 45 7 51 82 70 127 33 46 -38 34 -112 -32 -187 l-61
-70 55 10 c109 20 207 109 207 189 0 36 -147 182 -238 235 l-92 54 77 6 c90 8
53 84 -40 84 -44 0 -47 8 -47 114 l0 114 57 -90 c81 -127 152 -178 248 -178
187 0 233 216 61 282 -43 16 -48 27 -36 73 29 106 50 594 31 698 -22 119 -5
201 43 214 32 8 39 23 32 70 -7 47 1 64 35 80 135 61 23 534 -179 758 -61 68
-69 88 -59 151 10 62 3 81 -50 134 -104 104 56 111 191 9 78 -60 112 -26 64
65 -59 111 -167 123 -583 67 -199 -27 -323 -5 -311 56 8 36 93 42 211 14 141
-34 38 83 -131 149 -65 25 -234 19 -312 -12 -25 -10 -34 -7 -25 7 13 22 200
73 253 70 17 -2 52 2 78 7 102 21 -1 56 -188 64 -189 9 -230 28 -165 79 33 25
254 79 310 75 25 -2 45 3 45 12 0 45 -607 35 -822 -14 -36 -8 -56 -2 -64 18
-32 84 53 150 256 200 55 13 97 33 94 44 -10 37 -212 16 -374 -39 l-160 -54
-30 44 c-16 23 -49 89 -73 146 -56 135 -92 141 -124 19z"/>
<path d="M2834 4666 c-6 -9 -10 -49 -10 -90 0 -46 -16 -95 -42 -128 -92 -116
-28 -250 147 -308 200 -66 425 166 292 299 -25 25 -41 73 -45 135 -5 74 -14
97 -43 103 -57 11 -70 -16 -75 -157 -10 -244 -112 -239 -122 7 -6 137 -59 210
-102 139z"/>
<path d="M2248 4395 c-129 -150 -200 -320 -190 -458 3 -53 172 -200 281 -247
194 -82 187 -212 -23 -411 l-142 -135 11 -169 c8 -138 21 -188 67 -267 78
-136 149 -228 175 -228 13 -1 44 -22 69 -49 192 -203 586 114 456 366 -35 67
-43 114 -10 58 28 -49 89 -44 129 10 18 25 28 32 21 15 -7 -16 -18 -46 -24
-65 -7 -19 -20 -35 -29 -35 -8 0 -13 -20 -10 -45 57 -451 445 -498 692 -84
175 293 152 502 -74 673 -103 78 -116 102 -109 206 8 102 22 124 99 147 218
65 350 249 293 410 -150 430 -276 449 -659 96 -149 -137 -103 -285 51 -166 78
60 230 144 296 163 84 23 86 -80 7 -240 -67 -134 -101 -142 -293 -70 -168 63
-188 52 -157 -84 30 -130 25 -127 -65 42 -96 183 -119 180 -230 -25 -62 -116
-78 -136 -67 -83 43 203 30 213 -173 135 -164 -62 -207 -50 -262 80 -79 184
-34 338 70 234 13 -13 55 -40 93 -59 38 -20 94 -57 126 -83 96 -80 212 -33
157 65 -20 35 -262 244 -329 284 -30 18 -55 40 -55 48 0 38 -154 15 -192 -29z
m812 -658 c46 -199 41 -216 -60 -216 -105 0 -107 17 -37 294 36 143 47 134 97
-78z m-300 -295 c0 -48 35 -76 110 -87 44 -7 35 -10 -34 -12 -132 -4 -152
-102 -50 -253 54 -80 11 -40 -63 59 -46 62 -55 89 -42 130 9 28 22 85 28 126
13 77 51 105 51 37z m551 -101 l29 -122 -80 -101 c-91 -115 -105 -117 -29 -5
36 53 49 96 45 146 l-6 71 -130 12 c-107 9 -114 12 -42 15 92 3 162 46 162 99
0 58 23 7 51 -115z"/>
<path d="M875 3338 c-52 -30 -49 -236 4 -301 42 -50 47 -44 42 58 -3 40 12 85
37 118 72 91 13 181 -83 125z"/>
<path d="M5046 3335 c-43 -56 -41 -89 8 -126 43 -32 48 -48 38 -113 -14 -88
12 -100 59 -27 74 112 -27 367 -105 266z"/>
<path d="M2948 2415 c-64 -128 -98 -149 -215 -139 -140 11 -183 -26 -164 -144
13 -84 19 -95 117 -218 37 -47 59 -103 67 -172 15 -126 37 -129 89 -12 47 106
65 103 95 -15 44 -167 65 -165 118 14 25 83 58 84 87 3 31 -85 78 -112 78 -44
0 77 43 178 113 264 151 185 114 328 -84 328 -134 0 -180 32 -218 155 -19 62
-44 56 -83 -20z"/>
<path d="M2222 1513 c-12 -16 -18 -41 -12 -56 7 -17 -14 -47 -49 -73 -91 -67
-86 -176 11 -284 116 -128 161 -103 89 50 -38 80 -37 122 3 98 12 -8 53 -82
91 -166 39 -84 99 -186 135 -227 58 -68 63 -83 54 -184 -10 -118 29 -211 86
-211 23 0 27 19 17 90 -14 103 14 116 130 59 87 -44 88 -50 22 -148 -55 -80
-83 -222 -44 -220 8 0 65 45 125 100 132 119 107 119 240 0 60 -54 116 -93
125 -88 31 19 14 123 -31 189 -25 37 -52 79 -61 92 -18 31 137 114 181 97 24
-9 28 -31 17 -103 l-14 -91 51 33 c63 42 76 83 70 213 -5 89 2 111 56 175 57
69 186 317 186 359 0 24 56 46 68 26 5 -8 -8 -54 -29 -101 -66 -146 -43 -161
78 -52 113 102 116 251 6 309 -29 15 -42 35 -34 55 15 40 -23 86 -71 86 -43 0
-75 -53 -85 -137 -19 -181 -308 -534 -579 -709 l-56 -36 -144 108 c-291 220
-574 641 -504 753 16 26 -106 20 -128 -6z"/>
</g>
</svg>
