<svg xmlns="http://www.w3.org/2000/svg" version="1.0" width="900.000000pt" height="903.000000pt" viewBox="0 0 900.000000 903.000000" preserveAspectRatio="xMidYMid meet">
<metadata fill="#ffffff">
Created by potrace 1.10, written by Peter Selinger 2001-2011
</metadata>
<g transform="translate(0.000000,903.000000) scale(0.100000,-0.100000)" fill="#ffffff" stroke="none">
<path d="M4638 8795 c-30 -11 -309 -212 -498 -359 -25 -19 -66 -50 -92 -68 -26 -18 -92 -67 -145 -108 -88 -67 -135 -104 -308 -239 -27 -22 -97 -77 -154 -122 -82 -66 -110 -83 -136 -83 -23 0 -71 22 -152 69 -175 102 -241 133 -322 150 -76 16 -125 13 -171 -11 -27 -13 -60 -77 -78 -149 -33 -132 -42 -177 -42 -210 0 -69 -54 -397 -77 -470 -28 -88 -54 -124 -187 -271 -172 -187 -244 -275 -391 -472 -47 -64 -153 -212 -189 -262 -21 -30 -55 -77 -77 -105 -41 -53 -52 -106 -27 -136 15 -18 93 -79 101 -79 4 0 35 -21 71 -47 35 -27 102 -75 147 -108 106 -76 263 -231 318 -314 58 -85 115 -209 140 -303 39 -144 26 -390 -22 -420 -7 -4 -57 -8 -112 -8 -165 1 -323 54 -515 173 -59 38 -338 242 -350 257 -3 3 -38 33 -79 66 -41 32 -86 69 -100 81 -60 51 -78 14 -42 -88 25 -71 44 -107 106 -204 28 -44 71 -111 95 -150 76 -122 111 -176 210 -325 114 -171 272 -405 346 -510 29 -41 92 -132 139 -202 114 -168 133 -181 190 -132 83 72 118 97 195 137 148 77 206 92 355 92 147 0 131 6 310 -106 198 -124 287 -226 408 -473 47 -97 100 -227 116 -291 5 -16 13 -41 18 -55 40 -99 57 -218 57 -405 0 -171 -10 -226 -60 -333 -47 -100 -150 -172 -246 -172 -21 0 -86 16 -144 36 -59 19 -113 33 -121 30 -18 -7 -13 -60 12 -126 17 -45 151 -317 165 -335 4 -5 32 -55 61 -110 29 -55 63 -118 75 -140 12 -22 35 -65 51 -95 80 -152 140 -262 178 -330 23 -41 60 -109 82 -150 22 -41 62 -115 88 -165 26 -49 64 -117 84 -150 19 -33 56 -100 82 -150 33 -64 52 -91 67 -93 22 -3 19 -12 53 168 5 30 16 87 24 125 8 39 17 104 19 145 2 41 14 169 26 285 26 262 38 862 21 1060 -17 196 -28 293 -40 365 -6 36 -11 85 -11 108 0 24 -6 67 -14 95 -7 29 -21 88 -30 132 -26 123 -76 335 -91 385 -7 25 -21 72 -31 105 -72 248 -126 365 -266 576 -125 189 -102 151 -249 399 -67 113 -129 216 -138 230 -19 28 -58 110 -89 185 -93 227 -114 280 -141 356 -17 47 -31 94 -31 105 0 10 -7 42 -16 69 -24 73 -24 503 0 593 9 35 16 74 16 86 0 42 71 240 125 348 121 241 292 427 556 606 112 76 292 177 377 211 28 11 76 31 105 42 181 74 300 100 409 88 159 -18 348 -77 498 -156 361 -192 719 -593 750 -841 5 -37 12 -75 15 -83 3 -9 10 -76 15 -150 5 -74 14 -177 20 -229 20 -159 6 -372 -35 -540 -8 -30 -30 -127 -51 -215 -52 -227 -132 -466 -209 -622 -14 -29 -25 -55 -25 -58 0 -4 -81 -146 -100 -175 -6 -8 -13 -22 -17 -30 -3 -8 -25 -44 -48 -80 -69 -108 -326 -540 -366 -615 -20 -38 -50 -92 -66 -120 -39 -66 -138 -272 -174 -361 -39 -97 -44 -139 -25 -204 9 -29 16 -78 16 -107 0 -30 4 -73 9 -96 5 -23 14 -85 20 -137 7 -52 16 -124 21 -160 26 -179 57 -505 70 -732 5 -81 11 -152 14 -156 3 -5 10 -54 16 -108 15 -145 27 -204 46 -225 9 -11 20 -19 24 -19 23 0 96 88 170 206 35 54 143 219 211 321 104 155 179 272 179 277 0 3 13 25 30 49 17 25 30 47 30 50 0 3 19 38 43 79 24 40 78 145 121 233 97 201 89 182 131 300 20 55 44 114 52 131 19 37 12 64 -17 64 -11 0 -75 -23 -141 -51 -107 -45 -129 -51 -198 -52 -82 -2 -105 7 -164 62 -62 56 -113 201 -101 284 12 79 142 327 289 547 110 167 142 209 206 275 114 119 175 145 351 145 211 0 382 -64 633 -237 41 -29 81 -53 89 -53 21 0 52 41 96 125 39 74 65 117 142 233 15 24 28 45 28 47 0 2 20 35 44 72 24 37 53 86 65 108 12 22 25 47 30 55 39 62 90 156 154 280 108 211 138 266 187 349 72 125 104 227 80 256 -8 9 -22 12 -43 8 -43 -8 -52 -13 -212 -118 -147 -97 -339 -197 -415 -216 -93 -23 -249 -49 -302 -51 -20 -1 -47 6 -60 14 -20 14 -33 35 -79 130 -16 32 -39 163 -39 218 1 167 71 291 277 491 128 125 265 226 396 293 20 10 44 28 54 38 16 18 16 22 0 68 -10 27 -35 76 -57 108 -44 67 -77 126 -149 265 -28 53 -85 154 -126 222 -41 69 -75 127 -75 130 0 6 -70 121 -117 192 -52 80 -58 104 -44 187 7 39 17 86 23 104 5 19 14 57 18 85 4 29 15 88 24 132 9 44 19 118 23 166 5 79 4 88 -16 108 -18 18 -28 20 -64 15 -41 -6 -181 -71 -256 -118 -58 -37 -170 -91 -232 -111 -82 -27 -81 -27 -273 205 -56 68 -89 100 -276 265 -63 55 -155 138 -204 185 -121 114 -265 236 -468 395 -35 27 -118 101 -186 165 -80 75 -144 126 -185 147 -71 37 -61 35 -109 18z" fill="#ffffff"/>
<path d="M4515 6581 c-49 -35 -135 -131 -289 -321 -154 -191 -162 -201 -234 -300 -34 -47 -84 -112 -111 -145 -27 -33 -55 -77 -62 -99 -12 -35 -11 -42 11 -80 13 -22 46 -70 74 -106 27 -36 72 -94 100 -130 27 -36 52 -67 56 -70 3 -3 43 -52 89 -110 93 -117 301 -350 362 -405 69 -62 123 -40 210 88 23 34 95 125 159 202 190 230 363 485 384 568 9 38 -20 98 -96 193 -35 43 -108 144 -162 224 -137 203 -189 274 -279 378 -69 80 -142 143 -164 142 -5 -1 -26 -14 -48 -29z" fill="#ffffff"/>
</g>
</svg>